<?xml version="1.0" encoding="UTF-8"?>
<svg xmlns="http://www.w3.org/2000/svg" xmlns:xlink="http://www.w3.org/1999/xlink" width="600" height="600" viewBox="0 0 600 600">
<defs>
<clipPath id="clip-0">
<path clip-rule="nonzero" d="M 100 100 L 200 100 L 200 500 L 100 500 Z M 100 100 "/>
</clipPath>
<clipPath id="clip-1">
<path clip-rule="nonzero" d="M 100 350 C 150 450 200 500 250 500 C 350 500 450 300 550 100 C 450 250 350 400 250 400 C 200 400 150 350 100 300 Z M 100 350 "/>
</clipPath>
<clipPath id="clip-2">
<path clip-rule="nonzero" d="M 200 100 L 300 100 L 300 500 L 200 500 Z M 200 100 "/>
</clipPath>
<clipPath id="clip-3">
<path clip-rule="nonzero" d="M 100 350 C 150 450 200 500 250 500 C 350 500 450 300 550 100 C 450 250 350 400 250 400 C 200 400 150 350 100 300 Z M 100 350 "/>
</clipPath>
<clipPath id="clip-4">
<path clip-rule="nonzero" d="M 300 100 L 400 100 L 400 500 L 300 500 Z M 300 100 "/>
</clipPath>
<clipPath id="clip-5">
<path clip-rule="nonzero" d="M 100 350 C 150 450 200 500 250 500 C 350 500 450 300 550 100 C 450 250 350 400 250 400 C 200 400 150 350 100 300 Z M 100 350 "/>
</clipPath>
<clipPath id="clip-6">
<path clip-rule="nonzero" d="M 400 100 L 500 100 L 500 500 L 400 500 Z M 400 100 "/>
</clipPath>
<clipPath id="clip-7">
<path clip-rule="nonzero" d="M 100 350 C 150 450 200 500 250 500 C 350 500 450 300 550 100 C 450 250 350 400 250 400 C 200 400 150 350 100 300 Z M 100 350 "/>
</clipPath>
<clipPath id="clip-8">
<path clip-rule="nonzero" d="M 500 100 L 550 100 L 550 500 L 500 500 Z M 500 100 "/>
</clipPath>
<clipPath id="clip-9">
<path clip-rule="nonzero" d="M 100 350 C 150 450 200 500 250 500 C 350 500 450 300 550 100 C 450 250 350 400 250 400 C 200 400 150 350 100 300 Z M 100 350 "/>
</clipPath>
</defs>
<g clip-path="url(#clip-0)">
<g clip-path="url(#clip-1)">
<path fill-rule="nonzero" fill="rgb(96%, 49%, 0%)" fill-opacity="1" d="M 100 0 L 200 0 L 200 600 L 100 600 Z M 100 0 "/>
</g>
</g>
<g clip-path="url(#clip-2)">
<g clip-path="url(#clip-3)">
<path fill-rule="nonzero" fill="rgb(98%, 81%, 0%)" fill-opacity="1" d="M 200 0 L 300 0 L 300 600 L 200 600 Z M 200 0 "/>
</g>
</g>
<g clip-path="url(#clip-4)">
<g clip-path="url(#clip-5)">
<path fill-rule="nonzero" fill="rgb(31%, 65%, 26%)" fill-opacity="1" d="M 300 0 L 400 0 L 400 600 L 300 600 Z M 300 0 "/>
</g>
</g>
<g clip-path="url(#clip-6)">
<g clip-path="url(#clip-7)">
<path fill-rule="nonzero" fill="rgb(17%, 47%, 76%)" fill-opacity="1" d="M 400 0 L 500 0 L 500 600 L 400 600 Z M 400 0 "/>
</g>
</g>
<g clip-path="url(#clip-8)">
<g clip-path="url(#clip-9)">
<path fill-rule="nonzero" fill="rgb(52%, 28%, 63%)" fill-opacity="1" d="M 500 0 L 600 0 L 600 600 L 500 600 Z M 500 0 "/>
</g>
</g>
<path fill="none" stroke-width="16" stroke-linecap="round" stroke-linejoin="round" stroke="rgb(0%, 0%, 0%)" stroke-opacity="1" stroke-miterlimit="10" d="M 100 350 C 150 450 200 500 250 500 C 350 500 450 300 550 100 C 450 250 350 400 250 400 C 200 400 150 350 100 300 Z M 100 350 "/>
</svg>
