<svg xmlns="http://www.w3.org/2000/svg" viewBox="0 0 400 300"><path fill="#fafafa" d="M0 0h400v300H0z"/><path d="M30 20q50-20 90 0 30 30 20 130t-30 150q-20 40-35 40t-35-40q-20-50-30-150T30 20Z" style="fill:#f0f0f0;stroke:#333;stroke-width:2" transform="translate(100 50)"/><path d="M33 25q47-20 84 0 28 30 18 125t-28 145q-19 40-32 40t-32-40q-18-50-28-145T33 25Z" style="fill:#888;stroke:#555;stroke-width:1" transform="translate(100 50)"/><path d="m140 100 30 30 60-60" style="fill:none;stroke:#4caf50;stroke-width:10;stroke-linecap:round;stroke-linejoin:round" transform="translate(60 70)"/><text x="200" y="280" fill="#333" font-family="sans-serif" font-size="14" text-anchor="middle">5. Let cure for 24 hours</text></svg>